<svg width="37" height="37" viewBox="0 0 37 37" fill="none" xmlns="http://www.w3.org/2000/svg">
<path d="M25.1001 19.9854V26.9154C25.1001 32.6905 22.7901 35.0005 17.0151 35.0005H10.085C4.31001 35.0005 2 32.6905 2 26.9154V19.9854C2 14.2104 4.31001 11.9004 10.085 11.9004H17.0151C22.7901 11.9004 25.1001 14.2104 25.1001 19.9854Z" stroke="#292D32" stroke-width="4" stroke-linecap="round" stroke-linejoin="round"/>
<path d="M35.0005 10.085V17.0151C35.0005 22.7901 32.6905 25.1001 26.9154 25.1001H25.1004V19.9851C25.1004 14.21 22.7904 11.9 17.0154 11.9H11.9004V10.085C11.9004 4.31001 14.2104 2 19.9854 2H26.9154C32.6905 2 35.0005 4.31001 35.0005 10.085Z" stroke="#292D32" stroke-width="4" stroke-linecap="round" stroke-linejoin="round"/>
</svg>
